<svg xmlns="http://www.w3.org/2000/svg" width="48" height="48" viewBox="15 3.469 48 48"><g data-name="icon/action/search_24px"><path d="m58.912 51.469-.002-.002L45.19 37.775v-2.169l-.741-.768a17.814 17.814 0 0 1-11.61 4.308C23.003 39.146 15 31.143 15 21.307c0-9.836 8.002-17.838 17.839-17.838 9.836 0 17.838 8.002 17.838 17.838 0 4.257-1.53 8.38-4.308 11.61l.769.74h2.168L63 47.381l-4.086 4.086-.002.002ZM32.84 8.957c-6.81 0-12.35 5.54-12.35 12.35s5.54 12.35 12.35 12.35 12.35-5.54 12.35-12.35-5.54-12.35-12.35-12.35Z" fill-rule="evenodd" data-name="↳Color"/></g></svg>